<?xml version="1.0" encoding="UTF-8" standalone="no"?>
<!-- Created with Inkscape (http://www.inkscape.org/) -->

<svg
   version="1.1"
   id="svg5"
   inkscape:version="1.3 (0e150ed6c4, 2023-07-21)"
   sodipodi:docname="opennullanoid-reborn-logo-color.svg"
   width="206.50154"
   height="46.466988"
   inkscape:export-filename="../logo-png/opennullanoid-reborn-logo-color-46.png"
   inkscape:export-xdpi="96"
   inkscape:export-ydpi="96"
   xmlns:inkscape="http://www.inkscape.org/namespaces/inkscape"
   xmlns:sodipodi="http://sodipodi.sourceforge.net/DTD/sodipodi-0.dtd"
   xmlns="http://www.w3.org/2000/svg"
   xmlns:svg="http://www.w3.org/2000/svg">
  <sodipodi:namedview
     id="namedview7"
     pagecolor="#ffffff"
     bordercolor="#111111"
     borderopacity="1"
     inkscape:showpageshadow="0"
     inkscape:pageopacity="0"
     inkscape:pagecheckerboard="1"
     inkscape:deskcolor="#d1d1d1"
     inkscape:document-units="mm"
     showgrid="false"
     inkscape:window-maximized="1"
     inkscape:current-layer="svg5"
     inkscape:zoom="5.7002742"
     inkscape:cx="34.384311"
     inkscape:cy="20.349898"
     inkscape:window-width="1920"
     inkscape:window-height="1016"
     inkscape:window-x="1440"
     inkscape:window-y="0" />
  <defs
     id="defs2" />
  <g
     aria-label="NU//ΛИ0!D"
     id="text113"
     style="font-size:11.2889px;line-height:1.25;font-family:'Noto Sans';-inkscape-font-specification:'Noto Sans';stroke-width:0.264583"
     transform="matrix(3.5343634,0,0,3.5343634,-5.7980491,-3.0742513)">
    <path
       d="M 8.1425817,13.796503 H 6.9572467 L 2.644887,7.1021847 H 2.599731 Q 2.622309,7.4972962 2.656175,8.084319 2.690042,8.6713418 2.690042,9.2922314 V 13.796503 H 1.7530639 V 5.7362277 h 1.1740456 l 4.3010712,6.6717403 h 0.04515 Q 7.2620477,12.227346 7.2394697,11.866101 7.2281807,11.504856 7.2056027,11.075878 7.1943137,10.646899 7.1943137,10.285655 V 5.7362277 h 0.948268 z"
       id="path165"
       style="fill:#4b5263;fill-opacity:1" />
    <path
       d="m 16.462504,10.9517 c 0,0.556919 -0.112889,1.061156 -0.338667,1.512712 -0.225778,0.444031 -0.571971,0.797749 -1.038579,1.061157 -0.459082,0.255882 -1.046105,0.383823 -1.761068,0.383823 -1.000949,0 -1.764832,-0.270934 -2.291647,-0.812801 -0.519289,-0.549393 -0.778934,-1.271883 -0.778934,-2.167469 V 5.7362277 h 1.016001 v 5.2267613 c 0,0.654756 0.138081,1.102593 0.484274,1.463838 0.353719,0.361244 0.919712,0.502127 1.627149,0.502127 0.730016,0 1.328653,-0.174993 1.652268,-0.558816 C 15.364442,11.97879 15.457792,11.5613 15.457792,10.9517 V 5.7362277 h 1.004712 z"
       id="path167"
       sodipodi:nodetypes="sccscsccscscsccs"
       style="fill:#4b5263;fill-opacity:1" />
    <path
       d="M 21.576387,5.7362277 18.57354,13.796503 h -0.970846 l 3.002848,-8.0602753 z"
       id="path169"
       style="fill:#c678dd;fill-opacity:1" />
    <path
       d="M 25.775854,5.7362277 22.773006,13.796503 H 21.802161 L 24.805008,5.7362277 Z"
       id="path171"
       style="fill:#c678dd;fill-opacity:1" />
    <path
       d="m 25.88874,13.796503 2.98027,-8.094142 h 0.914401 l 2.968981,8.094142 H 31.702524 L 29.6931,7.9601411 Q 29.659233,7.8698299 29.580211,7.632763 29.501189,7.3956961 29.422166,7.1473403 29.354433,6.8876956 29.309277,6.7522288 q -0.07902,0.3499559 -0.180622,0.6886229 -0.1016,0.3273781 -0.169334,0.5192894 L 26.91603,13.796503 Z"
       id="path173"
       style="fill:#c678dd;fill-opacity:1" />
    <path
       d="m 33.869986,5.7362277 h 0.948268 v 4.4252493 q 0,0.372533 -0.01129,0.835378 -0.01129,0.462845 -0.03387,0.846668 -0.01129,0.383823 -0.03387,0.564445 h 0.04516 l 4.436538,-6.6717403 h 1.12889 V 13.796503 H 39.401547 V 9.4164093 q 0,-0.4176893 0.01129,-0.8918232 0.02258,-0.4741338 0.04516,-0.8692453 0.02258,-0.3951115 0.03387,-0.564445 h -0.04516 L 34.99888,13.796503 h -1.12889 z"
       id="path175"
       style="fill:#98c379;fill-opacity:1" />
    <path
       d="m 51.913594,11.527434 h -1.246561 l 4.42e-4,-5.7891751 1.248361,-0.00257 z"
       id="path179"
       sodipodi:nodetypes="ccccc"
       style="stroke-width:0.248588;fill:#e06c75;fill-opacity:1" />
    <path
       d="m 60.067279,9.6873429 q 0,2.0432911 -1.117601,3.0818701 -1.106313,1.02729 -3.093159,1.02729 H 53.610028 V 5.7362277 h 2.483558 q 1.219201,0 2.111024,0.4515561 0.891823,0.451556 1.377246,1.3320902 0.485423,0.8692453 0.485423,2.1674689 z m -1.072446,0.033867 q 0,-1.6143128 -0.801512,-2.3593802 Q 57.403098,6.6054734 55.94683,6.6054734 h -1.320801 v 6.3217846 h 1.095023 q 3.273781,0 3.273781,-3.2060481 z"
       id="path181"
       style="fill:#4b5263;fill-opacity:1" />
    <path
       d="m 51.913791,13.784954 h -1.246758 l 4.42e-4,-1.248446 1.248558,-5.54e-4 z"
       id="path406"
       sodipodi:nodetypes="ccccc"
       style="stroke-width:0.11545;fill:#e06c75;fill-opacity:1" />
    <path
       id="path460"
       style="stroke-width:0.270255;fill:#61afef;fill-opacity:1"
       d="m 45.363102,5.6703059 a 4,4.1733415 0 0 0 -3.999756,4.1730869 4,4.1733415 0 0 0 3.999756,4.1736262 4,4.1733415 0 0 0 3.999756,-4.1736262 4,4.1733415 0 0 0 -3.999756,-4.1730869 z m 0,1.0432717 a 3,3.1300061 0 0 1 2.999817,3.1298152 3,3.1300061 0 0 1 -2.999817,3.1303542 3,3.1300061 0 0 1 -2.999817,-3.1303542 3,3.1300061 0 0 1 2.999817,-3.1298152 z" />
  </g>
  <g
     aria-label="OPEN"
     id="text319"
     style="font-size:5.33333px;line-height:1.25;font-family:'Noto Sans';-inkscape-font-specification:'Noto Sans';fill:#abb2bf;fill-opacity:1;stroke-width:0.264583"
     transform="matrix(3.8645204,0,0,3.8645204,-6.3396647,-4.9300846)">
    <path
       d="m 3.336478,5.0623944 c 1.0666661,0 1.7813323,-0.7733328 1.7813323,-1.9359988 0,-1.1093327 -0.6933329,-1.8506656 -1.727999,-1.8506656 -1.050666,0 -1.7493323,0.7679996 -1.7493323,1.9146656 0,1.1253326 0.677333,1.8719988 1.695999,1.8719988 z M 3.389811,4.6783947 c -0.7786662,0 -1.2959992,-0.6186663 -1.2959992,-1.5519991 0,-0.8746661 0.4959997,-1.4613325 1.2426659,-1.4613325 0.7946662,0 1.3279992,0.6079997 1.3279992,1.5253325 0,0.8906661 -0.5119996,1.4879991 -1.2746659,1.4879991 z"
       style="font-family:Cantarell;-inkscape-font-specification:Cantarell;fill:#abb2bf;fill-opacity:1"
       id="path373" />
    <path
       d="M 5.8964779,5.0250611 H 6.3391443 V 1.7077298 h 0.6559996 c 0.5386664,0 0.9013328,0.3519998 0.9013328,0.8746661 0,0.5013331 -0.2986665,0.7679996 -0.8479995,0.7679996 H 6.1791444 v 0.3839997 h 0.7893329 c 0.8266662,0 1.3813325,-0.4906663 1.3813325,-1.2319992 0,-0.7093329 -0.5226664,-1.178666 -1.3013326,-1.178666 H 5.8964779 Z"
       style="font-family:Cantarell;-inkscape-font-specification:Cantarell;fill:#abb2bf;fill-opacity:1"
       id="path375" />
    <path
       d="M 9.0431435,5.0250611 H 11.368475 V 4.6410614 H 9.4858099 V 3.3023955 H 11.224476 V 2.9183957 H 9.4858099 V 1.7077298 H 11.368475 V 1.32373 H 9.0431435 Z"
       style="font-family:Cantarell;-inkscape-font-specification:Cantarell;fill:#abb2bf;fill-opacity:1"
       id="path377" />
    <path
       d="m 12.157807,5.0250611 h 0.415999 V 1.7983964 h -0.08 l 2.191999,3.2266647 h 0.490666 V 1.32373 h -0.415999 v 3.2373314 h 0.08533 L 12.664473,1.32373 h -0.506666 z"
       style="font-family:Cantarell;-inkscape-font-specification:Cantarell;fill:#abb2bf;fill-opacity:1"
       id="path379" />
  </g>
</svg>
